<svg t="1717036335720" class="icon" viewBox="0 0 1024 1024" version="1.1" xmlns="http://www.w3.org/2000/svg" p-id="2954" width="200" height="200"><path d="M602.112 331.264c-62.976 0-114.688-51.2-114.688-114.688s51.2-114.688 114.688-114.688c62.976 0 114.688 51.2 114.688 114.688s-51.712 114.688-114.688 114.688z m0-178.688c-35.328 0-64 28.672-64 64s28.672 64 64 64 64-28.672 64-64-28.672-64-64-64zM349.184 759.808H148.48c-13.824 0-25.088-11.264-25.088-25.088s11.264-25.088 25.088-25.088h200.192c25.088 0 46.592-14.848 55.808-37.888l107.52-269.312c5.12-12.8 19.968-19.456 32.768-14.336 12.8 5.12 19.456 19.968 14.336 32.768l-107.008 269.312c-17.408 42.496-57.344 69.632-102.912 69.632z" fill="#000000" p-id="2955"></path><path d="M872.448 535.04c-0.512 0-0.512 0 0 0l-149.504-2.048c-28.16-0.512-55.296-11.776-75.776-31.232l-83.456-81.92c-11.264-11.264-26.112-16.896-41.984-16.896H257.536c-13.824 0-25.088-11.264-25.088-25.088s11.264-25.088 25.088-25.088h263.68c29.184 0 56.32 11.264 77.312 31.232l83.456 81.408c11.264 10.752 25.6 16.896 40.96 16.896l149.504 2.048c13.824 0 25.088 11.776 25.088 25.6-0.512 13.824-11.264 25.088-25.088 25.088zM695.296 922.624c-11.264 0-21.504-7.68-24.576-18.944l-45.056-175.104c-4.608-17.92-16.896-32.768-34.304-39.936l-132.096-57.856c-12.8-5.632-18.432-20.48-12.8-33.28s20.48-18.432 33.28-12.8l132.096 57.856c31.232 13.824 54.272 40.448 62.464 73.728l45.056 175.104c3.584 13.312-4.608 27.136-17.92 30.72-2.048 0-4.096 0.512-6.144 0.512z" fill="#000000" p-id="2956" cursorshover="true"></path></svg>